<?xml version="1.0" encoding="iso-8859-1"?>
<!-- Generator: Adobe Illustrator 19.0.0, SVG Export Plug-In . SVG Version: 6.00 Build 0)  -->
<svg version="1.1" id="Capa_1" xmlns="http://www.w3.org/2000/svg" xmlns:xlink="http://www.w3.org/1999/xlink" x="0px" y="0px"
	 viewBox="0 0 453.129 453.129" style="enable-background:new 0 0 453.129 453.129;" xml:space="preserve">
<polygon style="fill:#FFFFFF;" points="266.565,325.129 226.565,365.129 186.565,325.129 162.565,325.129 186.565,445.129 
	266.565,445.129 290.565,325.129 "/>
<g>
	<path style="fill:#2E2C44;" d="M114.565,325.129c-26.51,0-48,21.49-48,48v72h120l-24-120H114.565z"/>
	<path style="fill:#2E2C44;" d="M338.565,325.129h-48l-24,120h120v-72C386.565,346.619,365.074,325.129,338.565,325.129z"/>
</g>
<g>
	<path style="fill:#F2DBC0;" d="M266.565,325.129v-57.68l0,0c-0.32,0.168-0.656,0.312-0.984,0.472
		c-0.944,0.472-1.888,0.936-2.848,1.376c-1.216,0.544-2.4,1.072-3.68,1.6s-2.592,0.976-3.904,1.424
		c-1.008,0.352-2,0.736-3.032,1.048c-1.336,0.4-2.704,0.736-4.072,1.08l-0.888,0.232c-0.664,0.16-1.328,0.328-1.992,0.472
		c-0.856,0.184-1.712,0.32-2.576,0.48c-1.544,0.288-3.096,0.544-4.664,0.752l-1.328,0.168c-0.672,0.072-1.336,0.144-2.016,0.2
		c-2.64,0.248-5.304,0.408-8,0.408s-5.368-0.16-8-0.408c-0.68-0.056-1.344-0.128-2.016-0.2l-1.328-0.168
		c-1.6-0.208-3.12-0.464-4.664-0.752c-0.864-0.16-1.72-0.296-2.576-0.48c-0.664-0.144-1.328-0.312-1.992-0.472l-0.888-0.232
		c-1.368-0.344-2.736-0.68-4.072-1.08c-1.032-0.312-2.024-0.696-3.032-1.048c-1.312-0.448-2.616-0.912-3.904-1.424
		s-2.464-1.024-3.68-1.6c-0.96-0.44-1.904-0.904-2.848-1.376c-0.328-0.16-0.664-0.304-0.984-0.472l0,0v57.68l40,40L266.565,325.129z
		"/>
	<path style="fill:#F2DBC0;" d="M126.565,141.129c-11.046,0-20,8.954-20,20s8.954,20,20,20h12v-40H126.565z"/>
	<path style="fill:#F2DBC0;" d="M326.565,181.129c11.046,0,20-8.954,20-20s-8.954-20-20-20h-12v40H326.565z"/>
</g>
<path style="fill:#EACA65;" d="M138.565,141.129l11.464-53.6c5.147-18.875,24.62-30.004,43.495-24.857
	c3.337,0.91,6.523,2.304,9.457,4.137l3.496,2.184c12.159,7.6,27.701,7.12,39.368-1.216c15.903-11.395,38.033-7.74,49.428,8.163
	c1.66,2.316,3.034,4.824,4.092,7.469l15.2,49.72l-3.336-71.808c-5.474-34.472-37.858-57.98-72.33-52.506
	c-5.142,0.817-10.163,2.265-14.95,4.314l-37.384,16c-30.928,0-56,25.072-56,56L138.565,141.129"/>
<path style="fill:#F2DBC0;" d="M299.365,83.409c-7.265-18.165-27.88-27.002-46.045-19.737c-2.632,1.053-5.128,2.417-7.435,4.065
	c-11.667,8.336-27.209,8.816-39.368,1.216l-3.496-2.184c-16.59-10.37-38.445-5.327-48.815,11.263
	c-1.833,2.933-3.227,6.119-4.137,9.457l-11.504,53.64v48c-0.006,29.756,15.048,57.493,40,73.704v-33.704
	c14.391,9.303,30.905,14.808,48,16c17.095-1.192,33.609-6.697,48-16v33.704c24.952-16.211,40.006-43.948,40-73.704v-56
	L299.365,83.409z"/>
<path style="fill:#EACA65;" d="M195.301,271.305c0.432,0.168,0.864,0.32,1.304,0.48c2.544,0.928,5.152,1.72,7.808,2.4
	c0.72,0.192,1.432,0.392,2.152,0.56c2.472,0.576,4.992,1.016,7.536,1.384c0.664,0.096,1.312,0.224,1.976,0.304l0.84,0.096
	c6.408,0.779,12.888,0.779,19.296,0l0.8-0.096c0.664-0.08,1.312-0.208,1.976-0.304c2.544-0.368,5.064-0.8,7.536-1.384
	c0.72-0.168,1.432-0.368,2.152-0.56c2.656-0.696,5.264-1.488,7.808-2.4c0.44-0.16,0.872-0.312,1.304-0.48
	c2.828-1.08,5.6-2.303,8.304-3.664c2.894-1.449,5.709-3.051,8.432-4.8l0,0v-33.712c-14.391,9.303-30.905,14.808-48,16
	c-17.095-1.192-33.609-6.697-48-16v33.704l0,0c2.723,1.749,5.538,3.351,8.432,4.8C189.674,268.998,192.459,270.224,195.301,271.305z
	"/>
<path d="M338.565,317.129h-64v-44.992c29.662-17.125,47.953-48.757,48-83.008h4c15.464,0,28-12.536,28-28s-12.536-28-28-28h-4.056
	c0-0.128,0.056-0.248,0.048-0.376l-3.336-71.808c-0.016-0.295-0.048-0.589-0.096-0.88c-6.155-38.838-42.63-65.332-81.468-59.177
	c-5.802,0.92-11.468,2.554-16.868,4.865l-35.92,15.376c-34.666,0.957-62.278,29.321-62.304,64c-0.001,0.38,0.026,0.76,0.08,1.136
	l6.696,46.864h-2.776c-15.464,0-28,12.536-28,28s12.536,28,28,28h4c0.047,34.251,18.338,65.883,48,83.008v44.992h-64
	c-30.913,0.035-55.965,25.087-56,56v72c0,4.418,3.582,8,8,8h320c4.418,0,8-3.582,8-8v-72
	C394.529,342.216,369.478,317.164,338.565,317.129z M220.909,370.785c3.124,3.123,8.188,3.123,11.312,0l37.656-37.656h10.928
	l-20.8,104h-66.88l-20.8-104h10.928L220.909,370.785z M186.565,258.305v-15.576c12.42,6.331,26.07,9.88,40,10.4
	c13.931-0.52,27.58-4.069,40-10.4v15.608c-24.714,14.432-55.286,14.432-80,0V258.305z M195.925,229.401l5.6-2.8
	c15.771-7.848,34.309-7.848,50.08,0l5.6,2.808c-9.571,4.662-20.003,7.29-30.64,7.72C215.928,236.69,205.497,234.059,195.925,229.401
	z M326.565,149.129c6.627,0,12,5.373,12,12s-5.373,12-12,12h-4v-24H326.565z M186.565,37.129c1.084,0.002,2.157-0.218,3.152-0.648
	l37.376-16c28.029-11.99,60.471,1.013,72.461,29.043c1.733,4.052,2.975,8.298,3.699,12.645l0.576,12.32
	c-12.227-20.652-38.88-27.482-59.532-15.256c-1.064,0.63-2.101,1.305-3.108,2.024c-9.025,6.467-21.064,6.84-30.472,0.944
	l-3.496-2.192c-20.326-12.712-47.108-6.54-59.82,13.786c-2.332,3.729-4.084,7.791-5.196,12.046l-2.04,9.688l-1.6-10.944
	C138.893,58.301,160.278,37.158,186.565,37.129z M126.565,173.129c-6.627,0-12-5.373-12-12s5.373-12,12-12h4v24H126.565z
	 M146.565,189.129v-47.152l11.2-52.384c4.011-14.61,19.106-23.202,33.716-19.191c2.567,0.705,5.019,1.78,7.276,3.191l3.504,2.192
	c14.897,9.344,33.966,8.753,48.256-1.496c12.36-8.808,29.519-5.928,38.327,6.432c1.129,1.585,2.087,3.285,2.857,5.072l14.864,48.536
	v54.8c0.006,21.467-8.647,42.029-24,57.032v-17.032c0.017-3.047-1.699-5.838-4.424-7.2l-19.376-9.6
	c-20.283-10.08-44.117-10.08-64.4,0l-19.376,9.6c-2.725,1.362-4.441,4.153-4.424,7.2v17.032
	C155.211,231.158,146.559,210.596,146.565,189.129z M226.565,285.129c10.908-0.023,21.732-1.917,32-5.6v42.288l-32,32l-32-32
	v-42.288C204.832,283.212,215.656,285.106,226.565,285.129z M74.565,373.129c0.026-22.08,17.92-39.974,40-40h41.44l20.8,104H74.565
	V373.129z M378.565,437.129h-102.24l20.8-104h41.44c22.08,0.026,39.974,17.92,40,40V437.129z"/>
<path d="M186.565,179.129c7.732,0,14-6.268,14-14s-6.268-14-14-14s-14,6.268-14,14C172.573,172.857,178.836,179.12,186.565,179.129z
	 M186.565,163.129c1.105,0,2,0.895,2,2c0,2.2-4,2.2-4,0C184.565,164.024,185.46,163.129,186.565,163.129z"/>
<path d="M266.565,179.129c7.732,0,14-6.268,14-14s-6.268-14-14-14s-14,6.268-14,14C252.573,172.857,258.836,179.12,266.565,179.129z
	 M266.565,163.129c1.105,0,2,0.895,2,2c0,2.2-4,2.2-4,0C264.565,164.024,265.46,163.129,266.565,163.129z"/>
<g>
</g>
<g>
</g>
<g>
</g>
<g>
</g>
<g>
</g>
<g>
</g>
<g>
</g>
<g>
</g>
<g>
</g>
<g>
</g>
<g>
</g>
<g>
</g>
<g>
</g>
<g>
</g>
<g>
</g>
</svg>
